<svg width="41" height="42" viewBox="0 0 41 42" fill="none" xmlns="http://www.w3.org/2000/svg">
<rect x="1" y="1.98438" width="39" height="39" rx="19.5" stroke="white" stroke-width="2"/>
<g clip-path="url(#clip0_947_3541)">
<path d="M20 16.2449C21.8703 16.2449 22.0918 16.2531 22.8273 16.2859C23.5109 16.316 23.8801 16.4309 24.1262 16.5266C24.4516 16.6523 24.6867 16.8055 24.9301 17.0488C25.1762 17.2949 25.3266 17.5273 25.4523 17.8527C25.548 18.0988 25.6629 18.4707 25.693 19.1516C25.7258 19.8898 25.734 20.1113 25.734 21.9789C25.734 23.8492 25.7258 24.0707 25.693 24.8063C25.6629 25.4898 25.548 25.859 25.4523 26.1051C25.3266 26.4305 25.1734 26.6656 24.9301 26.909C24.684 27.1551 24.4516 27.3055 24.1262 27.4313C23.8801 27.527 23.5082 27.6418 22.8273 27.6719C22.0891 27.7047 21.8676 27.7129 20 27.7129C18.1297 27.7129 17.9082 27.7047 17.1727 27.6719C16.4891 27.6418 16.1199 27.527 15.8738 27.4313C15.5484 27.3055 15.3133 27.1523 15.0699 26.909C14.8238 26.6629 14.6734 26.4305 14.5477 26.1051C14.452 25.859 14.3371 25.4871 14.307 24.8063C14.2742 24.068 14.266 23.8465 14.266 21.9789C14.266 20.1086 14.2742 19.8871 14.307 19.1516C14.3371 18.468 14.452 18.0988 14.5477 17.8527C14.6734 17.5273 14.8266 17.2922 15.0699 17.0488C15.316 16.8027 15.5484 16.6523 15.8738 16.5266C16.1199 16.4309 16.4918 16.316 17.1727 16.2859C17.9082 16.2531 18.1297 16.2449 20 16.2449ZM20 14.9844C18.0996 14.9844 17.8617 14.9926 17.1152 15.0254C16.3715 15.0582 15.8602 15.1785 15.4172 15.3508C14.9551 15.5312 14.5641 15.7691 14.1758 16.1602C13.7848 16.5484 13.5469 16.9395 13.3664 17.3988C13.1941 17.8445 13.0738 18.3531 13.041 19.0969C13.0082 19.8461 13 20.084 13 21.9844C13 23.8848 13.0082 24.1227 13.041 24.8691C13.0738 25.6129 13.1941 26.1242 13.3664 26.5672C13.5469 27.0293 13.7848 27.4203 14.1758 27.8086C14.5641 28.1969 14.9551 28.4375 15.4145 28.6152C15.8602 28.7875 16.3687 28.9078 17.1125 28.9406C17.859 28.9734 18.0969 28.9816 19.9973 28.9816C21.8977 28.9816 22.1355 28.9734 22.882 28.9406C23.6258 28.9078 24.1371 28.7875 24.5801 28.6152C25.0395 28.4375 25.4305 28.1969 25.8187 27.8086C26.207 27.4203 26.4477 27.0293 26.6254 26.5699C26.7977 26.1242 26.918 25.6156 26.9508 24.8719C26.9836 24.1254 26.9918 23.8875 26.9918 21.9871C26.9918 20.0867 26.9836 19.8488 26.9508 19.1023C26.918 18.3586 26.7977 17.8473 26.6254 17.4043C26.4531 16.9395 26.2152 16.5484 25.8242 16.1602C25.4359 15.7719 25.0449 15.5312 24.5855 15.3535C24.1398 15.1812 23.6313 15.0609 22.8875 15.0281C22.1383 14.9926 21.9004 14.9844 20 14.9844Z" fill="white"/>
<path d="M20 18.3887C18.0148 18.3887 16.4043 19.9992 16.4043 21.9844C16.4043 23.9695 18.0148 25.5801 20 25.5801C21.9852 25.5801 23.5957 23.9695 23.5957 21.9844C23.5957 19.9992 21.9852 18.3887 20 18.3887ZM20 24.3168C18.7121 24.3168 17.6676 23.2723 17.6676 21.9844C17.6676 20.6965 18.7121 19.652 20 19.652C21.2879 19.652 22.3324 20.6965 22.3324 21.9844C22.3324 23.2723 21.2879 24.3168 20 24.3168Z" fill="white"/>
<path d="M24.5773 18.2467C24.5773 18.7115 24.2 19.0861 23.7379 19.0861C23.273 19.0861 22.8984 18.7088 22.8984 18.2467C22.8984 17.7818 23.2758 17.4072 23.7379 17.4072C24.2 17.4072 24.5773 17.7846 24.5773 18.2467Z" fill="white"/>
</g>
<defs>
<clipPath id="clip0_947_3541">
<rect width="14" height="14" fill="white" transform="translate(13 14.9844)"/>
</clipPath>
</defs>
</svg>
