<svg width="44" height="44" viewBox="0 0 44 44" fill="none" xmlns="http://www.w3.org/2000/svg">
<g clip-path="url(#clip0_11_25)">
<path fill-rule="evenodd" clip-rule="evenodd" d="M11 0C17.0751 0 22 4.92487 22 11V0H33C39.0751 0 44 4.92487 44 11C44 17.0751 39.0751 22 33 22C39.0751 22 44 26.9249 44 33C44 36.0165 42.7857 38.7495 40.8194 40.7367L40.7782 40.7782L40.7417 40.8145C38.754 42.7837 36.0191 44 33 44C30.0015 44 27.2832 42.8002 25.2989 40.8545C25.2732 40.8293 25.2474 40.8037 25.2218 40.7782C25.1977 40.7541 25.1737 40.7299 25.1499 40.7056C23.2016 38.721 22 36.0008 22 33C22 39.0751 17.0751 44 11 44C4.92487 44 0 39.0751 0 33V22H11C4.92487 22 0 17.0751 0 11C0 4.92487 4.92487 0 11 0ZM19.8 11C19.8 15.8601 15.8601 19.8 11 19.8V2.2C15.8601 2.2 19.8 6.13989 19.8 11ZM41.8 33C41.8 28.1399 37.8601 24.2 33 24.2C28.1399 24.2 24.2 28.1399 24.2 33H41.8ZM2.2 24.2V33C2.2 37.8601 6.13989 41.8 11 41.8C15.8601 41.8 19.8 37.8601 19.8 33V24.2H2.2ZM24.2 19.8V2.2H33C37.8601 2.2 41.8 6.13989 41.8 11C41.8 15.8601 37.8601 19.8 33 19.8H24.2Z" fill="#4068FF"/>
</g>
<defs>
<clipPath id="clip0_11_25">
<rect width="44" height="44" fill="white"/>
</clipPath>
</defs>
</svg>
