<svg width="76" height="76" viewBox="0 0 76 76" fill="none" xmlns="http://www.w3.org/2000/svg">
<path d="M34.1665 2.44022C30.7516 2.73723 26.8935 3.47897 23.5966 4.44273C18.4223 5.94122 12.9237 8.71472 9.40489 11.5782C7.88242 12.824 5.88684 14.8715 4.80759 16.2957C3.61024 17.8827 2.24996 20.672 1.80675 22.4517C0.609406 27.2135 1.58477 30.3732 5.39879 34.1855C8.25164 37.0332 11.6964 39.3177 17.506 42.2105L21.0831 44.0052L19.2056 44.48C7.15744 47.5805 0.195343 53.633 1.46593 59.9075C2.67823 65.8857 10.4834 70.8102 22.6347 73.2582C27.4832 74.237 32.1843 74.6675 37.9349 74.6675C43.6854 74.6675 48.3866 74.237 53.2351 73.2582C61.5589 71.582 67.7826 68.7935 71.4187 65.0997C73.6512 62.8302 74.5376 60.9162 74.5085 58.3505C74.4786 56.1102 73.6662 54.2562 71.8029 52.2387C68.8461 49.0197 63.4065 46.2312 56.6656 44.4957L54.7732 43.9917L57.996 42.4197C66.4813 38.2497 71.5368 34.2447 73.5772 30.0762C74.3755 28.43 74.6565 27.05 74.5384 25.2702C74.2133 20.5385 72.2618 16.4292 68.5367 12.6762C63.0373 7.12847 54.6559 3.58322 44.5151 2.50022C42.2818 2.26247 36.4872 2.23248 34.1665 2.44022ZM44.9575 4.88822C47.131 5.12597 49.3328 5.51147 51.3142 6.00047C52.7036 6.34173 55.7045 7.30623 55.8525 7.45397C55.9265 7.51322 54.0049 10.955 51.5952 15.1085C46.4359 24.0237 46.628 23.6825 46.7461 24.1422C46.9681 25.0325 48.0174 25.3145 48.6385 24.6612C48.8306 24.4685 50.8262 21.101 53.0878 17.1852C55.3495 13.2687 57.419 9.67922 57.7001 9.20447L58.2023 8.35923L59.8137 9.17522C63.0066 10.8215 66.0075 13.0917 67.87 15.287C68.4022 15.9102 68.8312 16.4735 68.8312 16.5327C68.8312 16.592 65.6532 19.2027 61.7802 22.3325C57.8921 25.448 54.5961 28.1322 54.4623 28.2657C54.0931 28.6362 54.1222 29.408 54.5213 29.8235C55.2456 30.5945 55.1865 30.6245 62.9177 24.3792C66.8648 21.2045 70.1317 18.5937 70.1758 18.5937C70.2939 18.5937 71.27 20.7297 71.551 21.635C72.2752 23.9045 72.4232 26.3967 71.9352 27.9837C70.8126 31.604 65.8453 35.8467 58.0401 39.8075C56.1328 40.772 52.7926 42.3297 52.6297 42.3297C52.6147 42.3297 52.5557 41.9442 52.4966 41.4695C52.3486 40.0452 52.1274 38.888 51.8015 37.8792C49.9539 32.0937 44.5136 28.0887 38.4969 28.0737C35.8653 28.0737 34.0917 28.4742 31.9482 29.5422C30.4847 30.269 29.3023 31.1442 28.0901 32.405C26.8038 33.77 26.2567 34.556 25.4293 36.3065C24.6752 37.9235 24.2469 39.5997 24.0989 41.543C24.0399 42.3147 23.9509 42.878 23.9068 42.7887C23.8478 42.7145 22.7984 42.1805 21.5562 41.6022C11.3564 36.9147 5.47278 32.3757 3.96526 28.0437C3.64014 27.0792 3.61024 26.8272 3.68424 25.418C3.77318 23.6675 4.1424 22.199 4.89653 20.567C5.42868 19.4247 6.87716 17.111 7.05504 17.111C7.11409 17.111 10.4991 20.048 14.5792 23.6382C22.6213 30.7287 22.4434 30.5952 23.2274 29.7942C23.6265 29.4087 23.7005 28.7555 23.4046 28.385C23.3014 28.2515 19.9897 25.2995 16.0277 21.8135C12.0657 18.3275 8.79874 15.4197 8.75464 15.3455C8.57751 15.0635 11.5783 12.6012 13.781 11.207C14.9634 10.4652 18.2011 8.78897 18.8073 8.59622C19.0733 8.52197 19.6645 9.41222 24.1146 16.6662C29.333 25.181 29.2739 25.1067 30.1753 24.9882C30.6043 24.944 30.9885 24.4242 30.9885 23.9052C30.9885 23.579 29.688 21.3237 26.1842 15.6132C23.5383 11.2962 21.3798 7.70673 21.3798 7.64748C21.3798 7.48397 24.3366 6.56448 26.6423 6.00047C29.6873 5.25873 34.0783 4.65047 36.325 4.65047H37.3452L37.3452 13.3287C37.3452 19.3662 37.3893 22.0955 37.5081 22.3475C37.6711 22.718 38.2032 23.045 38.6165 23.045C38.7496 23.045 39.0455 22.8522 39.2817 22.6145L39.7107 22.184V13.328L39.7107 4.48697L41.3072 4.57623C42.1787 4.62122 43.8192 4.76897 44.9575 4.88822ZM40.3752 30.536C47.6183 31.8117 51.9794 39.422 49.4666 46.379C48.4023 49.301 46.0076 51.8825 43.154 53.1732C41.4836 53.9442 39.8871 54.2412 37.8616 54.152C35.9401 54.0777 34.8167 53.8257 33.3824 53.1582C28.8883 51.0665 26.1984 46.6167 26.4495 41.7357C26.5384 39.911 26.8045 38.8137 27.5288 37.3002C29.1551 33.8292 32.215 31.3812 35.8661 30.5952C37.4334 30.269 38.7189 30.254 40.3752 30.536ZM24.572 45.9935C25.6363 49.4052 27.824 52.4907 30.2927 54.0485C30.7508 54.3305 31.1208 54.5975 31.1208 54.6417C31.1208 54.686 30.6776 54.9237 30.1305 55.1907C28.8292 55.814 28.0019 56.5407 27.5288 57.4902C25.9024 60.7535 29.9085 63.617 36.7532 64.0617C40.6704 64.3287 45.2976 63.2165 47.338 61.5402C48.0921 60.917 48.7274 59.7005 48.7274 58.8702C48.7274 57.5502 47.693 56.2295 45.9187 55.2507L45.1496 54.8352L46.1698 54.1527C48.7274 52.4465 50.871 49.5987 51.7724 46.736L52.0385 45.8607L52.6887 45.9642C53.0579 46.0235 54.256 46.2905 55.3644 46.5575C63.7757 48.6342 69.6743 52.046 71.5958 55.9475C72.128 57.0155 72.1571 57.149 72.1571 58.499C72.1571 59.849 72.1273 59.9825 71.5809 61.0947C69.3192 65.678 61.3519 69.5495 50.427 71.3892C33.2644 74.267 13.1748 70.6917 6.06398 63.4827C5.16186 62.5632 4.71865 61.97 4.29038 61.0947C3.74328 59.9825 3.71413 59.8482 3.71413 58.514C3.71413 57.179 3.74403 57.0155 4.26123 55.9475C6.24186 51.764 12.8205 48.2045 22.4142 46.1127C24.3358 45.6815 24.4689 45.6815 24.572 45.9935ZM36.7973 56.4515C37.9356 56.585 38.6008 56.585 39.9903 56.4365C41.6458 56.2587 41.8087 56.2587 42.9022 56.57C44.2475 56.9412 45.6668 57.653 46.0801 58.172C46.9524 59.2842 45.622 60.4122 42.3842 61.2875C41.0688 61.6437 40.7287 61.673 37.9349 61.673C35.1411 61.673 34.801 61.643 33.4856 61.2875C31.8002 60.8277 30.5879 60.2787 29.9675 59.7005C29.1252 58.9145 29.4653 58.1427 30.9728 57.3275C32.008 56.7785 34.4318 56.096 34.9789 56.2002C35.1859 56.2287 35.9991 56.3472 36.7973 56.4515Z" fill="#424242"/>
<path d="M35.4228 35.4022C33.7524 36.0997 32.5251 37.2269 31.8457 38.7104C31.5498 39.3337 31.5057 39.6892 31.5057 41.1134C31.5057 42.7747 31.5057 42.8047 31.9197 43.1609C32.4519 43.6207 32.9691 43.6057 33.4572 43.1309C33.8122 42.7747 33.8264 42.6862 33.7382 41.8702C33.5162 39.6749 34.6253 38.0129 36.68 37.4347C37.8624 37.1084 38.2914 36.1439 37.5671 35.4322C37.1075 34.9567 36.5021 34.9567 35.4228 35.4022Z" fill="#424242"/>
</svg>
