<svg width="41" height="42" viewBox="0 0 41 42" fill="none" xmlns="http://www.w3.org/2000/svg">
<rect x="1" y="1.98438" width="39" height="39" rx="19.5" stroke="white" stroke-width="2"/>
<g clip-path="url(#clip0_947_3536)">
<path d="M22.959 13.9844H20.5995V23.5206C20.5995 24.6568 19.6921 25.5902 18.5628 25.5902C17.4335 25.5902 16.5261 24.6568 16.5261 23.5206C16.5261 22.4047 17.4134 21.4916 18.5023 21.451V19.0568C16.1026 19.0974 14.1667 21.0655 14.1667 23.5206C14.1667 25.996 16.1429 27.9844 18.583 27.9844C21.023 27.9844 22.9993 25.9757 22.9993 23.5206V18.6307C23.8866 19.28 24.9755 19.6655 26.125 19.6858V17.2916C24.3504 17.2308 22.959 15.7699 22.959 13.9844Z" fill="white"/>
</g>
<defs>
<clipPath id="clip0_947_3536">
<rect width="14" height="14" fill="white" transform="translate(13 13.9844)"/>
</clipPath>
</defs>
</svg>
