<svg width="41" height="42" viewBox="0 0 41 42" fill="none" xmlns="http://www.w3.org/2000/svg">
<rect x="1" y="1.98438" width="39" height="39" rx="19.5" stroke="white" stroke-width="2"/>
<path d="M26.8605 19.1842C26.8605 19.1842 26.7238 18.2189 26.3027 17.7951C25.7695 17.2373 25.1734 17.2346 24.9 17.2018C22.9422 17.0596 20.0027 17.0596 20.0027 17.0596H19.9973C19.9973 17.0596 17.0578 17.0596 15.1 17.2018C14.8266 17.2346 14.2305 17.2373 13.6973 17.7951C13.2762 18.2189 13.1422 19.1842 13.1422 19.1842C13.1422 19.1842 13 20.3189 13 21.451V22.5119C13 23.6439 13.1395 24.7787 13.1395 24.7787C13.1395 24.7787 13.2762 25.7439 13.6945 26.1678C14.2277 26.7256 14.9277 26.7064 15.2395 26.7666C16.3605 26.8732 20 26.9061 20 26.9061C20 26.9061 22.9422 26.9006 24.9 26.7611C25.1734 26.7283 25.7695 26.7256 26.3027 26.1678C26.7238 25.7439 26.8605 24.7787 26.8605 24.7787C26.8605 24.7787 27 23.6467 27 22.5119V21.451C27 20.3189 26.8605 19.1842 26.8605 19.1842ZM18.5535 23.7998V19.865L22.3352 21.8393L18.5535 23.7998Z" fill="white"/>
</svg>
