<svg width="24" height="25" viewBox="0 0 24 25" fill="none" xmlns="http://www.w3.org/2000/svg">
<g clip-path="url(#clip0_923_3268)">
<path d="M15.8572 9.52808C17.7895 9.52808 19.6426 10.2957 21.0089 11.662C22.3752 13.0284 23.1429 14.8815 23.1429 16.8138C23.1475 18.248 22.7235 19.6508 21.9257 20.8424L23.1429 24.0995L19.0457 23.3624C18.0603 23.8429 16.9793 24.0949 15.8831 24.0995C14.7869 24.1041 13.7037 23.8612 12.7143 23.3891C11.725 22.917 10.8549 22.2275 10.169 21.3724C9.48307 20.5173 8.99896 19.5184 8.75275 18.4501C8.50655 17.3819 8.50456 16.2718 8.74698 15.2027C8.98939 14.1336 9.46994 13.133 10.1528 12.2754C10.8357 11.4178 11.7033 10.7254 12.6909 10.2497C13.6786 9.77403 14.7609 9.52736 15.8572 9.52808Z" stroke="white" stroke-width="2" stroke-linecap="round" stroke-linejoin="round"/>
<path d="M16.9029 5.25954C15.7484 3.79052 14.1647 2.71802 12.3721 2.19138C10.5794 1.66474 8.66723 1.71017 6.90165 2.32133C5.13607 2.9325 3.60501 4.07898 2.5216 5.60116C1.4382 7.12333 0.856395 8.94546 0.857187 10.8138C0.851875 12.5898 1.37719 14.3269 2.36575 15.8024L0.857187 19.8138L4.49147 19.1623" stroke="white" stroke-width="2" stroke-linecap="round" stroke-linejoin="round"/>
</g>
<defs>
<clipPath id="clip0_923_3268">
<rect width="24" height="24" fill="white" transform="translate(0 0.956543)"/>
</clipPath>
</defs>
</svg>
