<svg width="24" height="25" viewBox="0 0 24 25" fill="none" xmlns="http://www.w3.org/2000/svg">
<g clip-path="url(#clip0_923_3282)">
<path d="M20.4915 10.3547C20.4915 15.0471 16.6875 18.851 11.9952 18.851C7.30278 18.851 3.49887 15.0471 3.49887 10.3547C3.49887 5.66232 7.30278 1.8584 11.9952 1.8584C16.6875 1.8584 20.4915 5.66232 20.4915 10.3547Z" stroke="white" stroke-width="2" stroke-linecap="round" stroke-linejoin="round"/>
<path d="M12.3429 5.74177L13.5132 8.09609C13.5394 8.15562 13.5809 8.20716 13.6335 8.24542C13.6861 8.28366 13.7479 8.30727 13.8126 8.31382L16.4119 8.70848C16.4862 8.71815 16.5562 8.74878 16.6137 8.79678C16.6713 8.84478 16.714 8.90818 16.7368 8.97954C16.7596 9.05093 16.7617 9.12733 16.7427 9.19981C16.7237 9.27231 16.6845 9.3379 16.6296 9.38892L14.7108 11.2125C14.6822 11.2671 14.6672 11.3278 14.6672 11.3894C14.6672 11.451 14.6822 11.5117 14.7108 11.5663L15.0782 14.152C15.0939 14.2267 15.0875 14.3044 15.0599 14.3756C15.0323 14.4468 14.9847 14.5085 14.9228 14.5531C14.8608 14.5978 14.7872 14.6235 14.711 14.6272C14.6347 14.6309 14.559 14.6123 14.493 14.5738L12.1796 13.3491C12.1197 13.322 12.0547 13.308 11.989 13.308C11.9233 13.308 11.8584 13.322 11.7985 13.3491L9.48502 14.5738C9.41907 14.6123 9.34335 14.6309 9.26708 14.6272C9.19081 14.6235 9.11724 14.5978 9.0553 14.5531C8.99335 14.5085 8.94569 14.4468 8.91811 14.3756C8.89051 14.3044 8.88416 14.2267 8.89985 14.152L9.33533 11.5663C9.35405 11.5063 9.35763 11.4426 9.34577 11.3808C9.33389 11.3191 9.30692 11.2613 9.26727 11.2125L7.34845 9.37531C7.29756 9.32376 7.26183 9.25918 7.24519 9.18867C7.22856 9.11815 7.23166 9.04441 7.25415 8.97555C7.27663 8.90669 7.31765 8.84533 7.37268 8.79822C7.42772 8.75112 7.49467 8.72007 7.56619 8.70848L10.1655 8.32743C10.2302 8.32088 10.292 8.29728 10.3446 8.25903C10.3972 8.22077 10.4387 8.16924 10.4648 8.1097L11.6352 5.75538C11.6665 5.68873 11.7159 5.63218 11.7776 5.59212C11.8394 5.55205 11.9112 5.53006 11.9848 5.52864C12.0584 5.52723 12.131 5.54643 12.1942 5.58411C12.2575 5.62177 12.309 5.67639 12.3429 5.74177Z" stroke="white" stroke-width="2" stroke-linecap="round" stroke-linejoin="round"/>
<path d="M4.63538 14.5222L0.857056 21.0665L4.93963 19.9726L6.03355 24.0551L9.31181 18.3771" stroke="white" stroke-width="2" stroke-linecap="round" stroke-linejoin="round"/>
<path d="M19.3644 14.5222L23.1427 21.0665L19.0601 19.9726L17.9662 24.0551L14.688 18.3771" stroke="white" stroke-width="2" stroke-linecap="round" stroke-linejoin="round"/>
</g>
<defs>
<clipPath id="clip0_923_3282">
<rect width="24" height="24" fill="white" transform="translate(0 0.956543)"/>
</clipPath>
</defs>
</svg>
