<svg width="24" height="25" viewBox="0 0 24 25" fill="none" xmlns="http://www.w3.org/2000/svg">
<g clip-path="url(#clip0_923_3184)">
<path d="M14.5714 10.385H19.7143C20.6235 10.385 21.4956 10.7462 22.1386 11.3892C22.7816 12.0322 23.1428 12.9043 23.1428 13.8136V20.6707H20.5714" stroke="white" stroke-width="2" stroke-linecap="round" stroke-linejoin="round"/>
<path d="M2.5714 20.6708H0.857117V8.67083C0.857117 8.21617 1.03773 7.78014 1.35922 7.45864C1.68071 7.13716 2.11674 6.95654 2.5714 6.95654H12.8571C13.3118 6.95654 13.7478 7.13716 14.0693 7.45864C14.3908 7.78014 14.5714 8.21617 14.5714 8.67083V20.6708" stroke="white" stroke-width="2" stroke-linecap="round" stroke-linejoin="round"/>
<path d="M13.7142 20.6709H9.42853" stroke="white" stroke-width="2" stroke-linecap="round" stroke-linejoin="round"/>
<path d="M17.5714 24.0994C15.9146 24.0994 14.5714 22.7562 14.5714 21.0994C14.5714 19.4425 15.9146 18.0994 17.5714 18.0994C19.2283 18.0994 20.5714 19.4425 20.5714 21.0994C20.5714 22.7562 19.2283 24.0994 17.5714 24.0994Z" stroke="white" stroke-width="2" stroke-linecap="round" stroke-linejoin="round"/>
<path d="M6 24.0994C4.34314 24.0994 3 22.7562 3 21.0994C3 19.4425 4.34314 18.0994 6 18.0994C7.65686 18.0994 9 19.4425 9 21.0994C9 22.7562 7.65686 24.0994 6 24.0994Z" stroke="white" stroke-width="2" stroke-linecap="round" stroke-linejoin="round"/>
</g>
<defs>
<clipPath id="clip0_923_3184">
<rect width="24" height="24" fill="white" transform="translate(0 0.956543)"/>
</clipPath>
</defs>
</svg>
