<svg width="24" height="24" viewBox="0 0 24 24" fill="none" xmlns="http://www.w3.org/2000/svg">
<g clip-path="url(#clip0_923_3282)">
<path d="M20.4915 9.3984C20.4915 14.0908 16.6875 17.8947 11.9952 17.8947C7.30278 17.8947 3.49887 14.0908 3.49887 9.3984C3.49887 4.70603 7.30278 0.9021 11.9952 0.9021C16.6875 0.9021 20.4915 4.70603 20.4915 9.3984Z" stroke="#B2A671" stroke-width="2" stroke-linecap="round" stroke-linejoin="round"/>
<path d="M12.3429 4.78547L13.5132 7.13979C13.5394 7.19933 13.5809 7.25086 13.6335 7.28912C13.6861 7.32737 13.7479 7.35097 13.8126 7.35752L16.4119 7.75218C16.4862 7.76185 16.5562 7.79249 16.6137 7.84049C16.6713 7.88849 16.714 7.95188 16.7368 8.02325C16.7596 8.09463 16.7617 8.17103 16.7427 8.24351C16.7237 8.31601 16.6845 8.3816 16.6296 8.43262L14.7108 10.2562C14.6822 10.3108 14.6672 10.3715 14.6672 10.4331C14.6672 10.4947 14.6822 10.5554 14.7108 10.61L15.0782 13.1957C15.0939 13.2704 15.0875 13.3481 15.0599 13.4193C15.0323 13.4905 14.9847 13.5522 14.9228 13.5968C14.8608 13.6415 14.7872 13.6672 14.711 13.6709C14.6347 13.6746 14.559 13.656 14.493 13.6175L12.1796 12.3928C12.1197 12.3657 12.0547 12.3517 11.989 12.3517C11.9233 12.3517 11.8584 12.3657 11.7985 12.3928L9.48502 13.6175C9.41907 13.656 9.34335 13.6746 9.26708 13.6709C9.19081 13.6672 9.11724 13.6415 9.0553 13.5968C8.99335 13.5522 8.94569 13.4905 8.91811 13.4193C8.89051 13.3481 8.88416 13.2704 8.89985 13.1957L9.33533 10.61C9.35405 10.55 9.35763 10.4863 9.34577 10.4245C9.33389 10.3628 9.30692 10.305 9.26727 10.2562L7.34845 8.41901C7.29756 8.36746 7.26183 8.30288 7.24519 8.23237C7.22856 8.16185 7.23166 8.08811 7.25415 8.01925C7.27663 7.95039 7.31765 7.88903 7.37268 7.84193C7.42772 7.79482 7.49467 7.76377 7.56619 7.75218L10.1655 7.37113C10.2302 7.36458 10.292 7.34098 10.3446 7.30273C10.3972 7.26447 10.4387 7.21294 10.4648 7.1534L11.6352 4.79909C11.6665 4.73243 11.7159 4.67588 11.7776 4.63582C11.8394 4.59575 11.9112 4.57376 11.9848 4.57234C12.0584 4.57093 12.131 4.59013 12.1942 4.62781C12.2575 4.66547 12.309 4.72009 12.3429 4.78547Z" stroke="#B2A671" stroke-width="2" stroke-linecap="round" stroke-linejoin="round"/>
<path d="M4.63538 13.5659L0.857056 20.1102L4.93963 19.0163L6.03355 23.0988L9.31181 17.4208" stroke="#B2A671" stroke-width="2" stroke-linecap="round" stroke-linejoin="round"/>
<path d="M19.3644 13.5659L23.1427 20.1102L19.0601 19.0163L17.9662 23.0988L14.688 17.4208" stroke="#B2A671" stroke-width="2" stroke-linecap="round" stroke-linejoin="round"/>
</g>
<defs>
<clipPath id="clip0_923_3282">
<rect width="24" height="24" fill="white" transform="translate(0 0.000244141)"/>
</clipPath>
</defs>
</svg>
