<svg width="24" height="25" viewBox="0 0 24 25" fill="none" xmlns="http://www.w3.org/2000/svg">
<g clip-path="url(#clip0_923_3272)">
<path d="M12.6061 23.8998C12.2123 24.0517 11.7759 24.0517 11.382 23.8998C8.30857 22.7197 5.66535 20.6353 3.80152 17.9214C1.93768 15.2076 0.940941 11.9923 0.942935 8.70012V3.59959C0.942935 3.14868 1.12206 2.71622 1.4409 2.39738C1.75976 2.07854 2.1922 1.89941 2.64311 1.89941H21.3451C21.7959 1.89941 22.2284 2.07854 22.5473 2.39738C22.8662 2.71622 23.0453 3.14868 23.0453 3.59959V8.70012C23.0472 11.9923 22.0505 15.2076 20.1867 17.9214C18.3228 20.6353 15.6796 22.7197 12.6061 23.8998Z" stroke="white" stroke-width="2" stroke-linecap="round" stroke-linejoin="round"/>
<path d="M17.1428 7.81372L10.2857 15.528L6.85712 12.9566" stroke="white" stroke-width="2" stroke-linecap="round" stroke-linejoin="round"/>
</g>
<defs>
<clipPath id="clip0_923_3272">
<rect width="24" height="24" fill="white" transform="translate(0 0.956543)"/>
</clipPath>
</defs>
</svg>
