<svg width="24" height="24" viewBox="0 0 24 24" fill="none" xmlns="http://www.w3.org/2000/svg">
<g clip-path="url(#clip0_923_3272)">
<path d="M12.6061 22.9435C12.2123 23.0954 11.7759 23.0954 11.382 22.9435C8.30857 21.7634 5.66535 19.679 3.80152 16.9651C1.93768 14.2513 0.940941 11.036 0.942935 7.74383V2.64329C0.942935 2.19239 1.12206 1.75992 1.4409 1.44109C1.75976 1.12224 2.1922 0.943115 2.64311 0.943115H21.3451C21.7959 0.943115 22.2284 1.12224 22.5473 1.44109C22.8662 1.75992 23.0453 2.19239 23.0453 2.64329V7.74383C23.0472 11.036 22.0505 14.2513 20.1867 16.9651C18.3228 19.679 15.6796 21.7634 12.6061 22.9435Z" stroke="#B2A671" stroke-width="2" stroke-linecap="round" stroke-linejoin="round"/>
<path d="M17.1428 6.85742L10.2857 14.5717L6.85712 12.0003" stroke="#B2A671" stroke-width="2" stroke-linecap="round" stroke-linejoin="round"/>
</g>
<defs>
<clipPath id="clip0_923_3272">
<rect width="24" height="24" fill="white" transform="translate(0 0.000244141)"/>
</clipPath>
</defs>
</svg>
