<svg width="24" height="24" viewBox="0 0 24 24" fill="none" xmlns="http://www.w3.org/2000/svg">
<g clip-path="url(#clip0_923_3268)">
<path d="M15.8572 8.57178C17.7895 8.57178 19.6426 9.33938 21.0089 10.7057C22.3752 12.0721 23.1429 13.9252 23.1429 15.8575C23.1475 17.2917 22.7235 18.6945 21.9257 19.8861L23.1429 23.1432L19.0457 22.4061C18.0603 22.8866 16.9793 23.1386 15.8831 23.1432C14.7869 23.1478 13.7037 22.9049 12.7143 22.4328C11.725 21.9607 10.8549 21.2712 10.169 20.4161C9.48307 19.561 8.99896 18.5621 8.75275 17.4938C8.50655 16.4256 8.50456 15.3155 8.74698 14.2464C8.98939 13.1773 9.46994 12.1767 10.1528 11.3191C10.8357 10.4615 11.7033 9.76909 12.6909 9.29341C13.6786 8.81773 14.7609 8.57106 15.8572 8.57178Z" stroke="#B2A671" stroke-width="2" stroke-linecap="round" stroke-linejoin="round"/>
<path d="M16.9029 4.30324C15.7484 2.83422 14.1647 1.76173 12.3721 1.23508C10.5794 0.708446 8.66723 0.753871 6.90165 1.36503C5.13607 1.9762 3.60501 3.12268 2.5216 4.64486C1.4382 6.16703 0.856395 7.98916 0.857187 9.85752C0.851875 11.6335 1.37719 13.3706 2.36575 14.8461L0.857187 18.8575L4.49147 18.206" stroke="#B2A671" stroke-width="2" stroke-linecap="round" stroke-linejoin="round"/>
</g>
<defs>
<clipPath id="clip0_923_3268">
<rect width="24" height="24" fill="white" transform="translate(0 0.000244141)"/>
</clipPath>
</defs>
</svg>
